<svg xmlns="http://www.w3.org/2000/svg" viewBox="0 0 180 180"><defs><linearGradient id="b" x1="0" y1="0" x2="1" y2="1"><stop offset="0" stop-color="#ffc542"/><stop offset="1" stop-color="#ff8a1f"/></linearGradient></defs><ellipse cx="90" cy="152" rx="58" ry="13" fill="#c77b20" opacity=".15"/><rect x="34" y="58" width="112" height="78" rx="18" fill="url(#b)" stroke="#fff2c8" stroke-width="5"/><path d="M45 58h90l-12-24H57Z" fill="#ffd766" stroke="#fff2c8" stroke-width="5"/><circle cx="72" cy="100" r="6" fill="#6a3318"/><circle cx="108" cy="100" r="6" fill="#6a3318"/><path d="M77 117c9 8 20 8 28 0" stroke="#6a3318" stroke-width="5" stroke-linecap="round" fill="none"/><g><circle cx="57" cy="45" r="16" fill="#ffcf7a"/><circle cx="74" cy="38" r="18" fill="#b46b33"/><circle cx="99" cy="39" r="15" fill="#74c8ff"/><path d="M119 30c18 9 18 24 0 33-6-12-6-21 0-33Z" fill="#6ce0aa"/><path d="M132 28c-3 18-15 25-30 15 9-11 18-16 30-15Z" fill="#ff7f9a"/></g></svg>