<svg xmlns="http://www.w3.org/2000/svg" viewBox="0 0 180 180"><defs><linearGradient id="rim" x1="0" y1="0" x2="1" y2="1"><stop offset="0" stop-color="#ffc83d"/><stop offset="1" stop-color="#ff7b22"/></linearGradient></defs><ellipse cx="90" cy="153" rx="58" ry="14" fill="#e36e1f" opacity=".16"/><circle cx="90" cy="88" r="68" fill="url(#rim)"/><circle cx="90" cy="88" r="58" fill="#fff4d7"/><path d="M90 30v58L130 47A58 58 0 0 0 90 30Z" fill="#ffcf6b"/><path d="M130 47 90 88h58c0-15-7-30-18-41Z" fill="#8ee0bf"/><path d="M148 88H90l41 41c11-11 17-25 17-41Z" fill="#7ac8ff"/><path d="M131 129 90 88v58c16 0 30-6 41-17Z" fill="#7fa9ff"/><path d="M90 146V88l-41 41c11 11 25 17 41 17Z" fill="#ffe58a"/><path d="M49 129 90 88H32c0 16 6 30 17 41Z" fill="#a9b9ff"/><path d="M32 88h58L49 47C38 58 32 73 32 88Z" fill="#d8a7ff"/><path d="M49 47 90 88V30c-16 0-30 6-41 17Z" fill="#ff9a9a"/><circle cx="90" cy="88" r="20" fill="#ff8a2a" stroke="#fff2c9" stroke-width="6"/><circle cx="90" cy="88" r="8" fill="#54a3ff"/><g fill="#fff3ca"><circle cx="90" cy="24" r="4"/><circle cx="136" cy="42" r="4"/><circle cx="154" cy="88" r="4"/><circle cx="136" cy="134" r="4"/><circle cx="90" cy="152" r="4"/><circle cx="44" cy="134" r="4"/><circle cx="26" cy="88" r="4"/><circle cx="44" cy="42" r="4"/></g><path d="M80 18h20l-10 23Z" fill="#ff8a2a" stroke="#e66f1b" stroke-width="4" stroke-linejoin="round"/></svg>