<svg xmlns="http://www.w3.org/2000/svg" viewBox="0 0 180 180"><defs><radialGradient id="g" cx="38%" cy="25%" r="70%"><stop offset="0" stop-color="#ffe7a3"/><stop offset="1" stop-color="#c8722b"/></radialGradient><linearGradient id="m" x1="0" y1="0" x2="1" y2="1"><stop offset="0" stop-color="#ffe3a4"/><stop offset="1" stop-color="#d9893c"/></linearGradient></defs><ellipse cx="88" cy="145" rx="62" ry="20" fill="#c75a25" opacity=".18"/><ellipse cx="86" cy="130" rx="52" ry="24" fill="#d76a2e"/><path d="M42 125c18 15 74 15 92 0" stroke="#f1b35e" stroke-width="7" fill="none"/><path d="M34 101c4-45 34-68 74-56 29 9 44 35 34 65-13 39-78 43-108-9Z" fill="url(#g)"/><path d="M42 88c30 12 64 9 95-4" stroke="#5a250f" stroke-width="9" stroke-linecap="round" fill="none"/><circle cx="86" cy="91" r="10" fill="#2b1007"/><path d="M57 61c22-13 47-17 67-2M54 73c24-12 50-15 78-1M53 103c19 10 49 13 79 1" stroke="#a65722" stroke-width="3" opacity=".45" fill="none"/><g transform="rotate(-34 127 110)"><rect x="122" y="80" width="18" height="72" rx="9" fill="url(#m)"/><circle cx="131" cy="77" r="17" fill="#f1c37a"/><circle cx="131" cy="77" r="10" fill="#ffe0a6" opacity=".7"/></g></svg>